<svg width="67" height="67" xmlns="http://www.w3.org/2000/svg">

 <g>
  <title>background</title>
  <rect fill="none" id="canvas_background" height="402" width="582" y="-1" x="-1"/>
 </g>
 <g>
  <title>Layer 1</title>
  <path stroke="null" id="svg_1" fill-rule="evenodd" clip-rule="evenodd" fill="#010101" d="m52.296592,49.294236l0,-13.023529c0,-6.977685 -3.725138,-10.224671 -8.691248,-10.224671c-4.007582,0 -5.803432,2.20506 -6.804216,3.751826l0,-3.218075l-7.550355,0c0.100078,2.131669 0,22.714449 0,22.714449l7.550355,0l0,-12.685486c0,-0.677197 0.048927,-1.355506 0.249084,-1.84033c0.544871,-1.356618 1.786954,-2.76105 3.87192,-2.76105c2.733251,0 3.825217,2.082742 3.825217,5.135131l0,12.152847l7.549243,0l0,-0.001112zm-30.999824,-25.814653c2.632061,0 4.272233,-1.745811 4.272233,-3.926407c-0.048927,-2.227299 -1.640173,-3.923071 -4.222194,-3.923071s-4.271121,1.69466 -4.271121,3.923071c0,2.180596 1.639061,3.926407 4.173267,3.926407l0.047815,0zm12.277389,43.454018c-18.423312,0 -33.359449,-14.936137 -33.359449,-33.359449c0,-18.424424 14.936137,-33.359449 33.359449,-33.359449s33.359449,14.935025 33.359449,33.359449c0,18.423312 -14.936137,33.359449 -33.359449,33.359449zm-8.502211,-17.639365l0,-22.714449l-7.549243,0l0,22.714449l7.549243,0z"/>
 </g>
</svg>