<?xml version="1.0" encoding="UTF-8" standalone="no"?>
<svg
   xmlns:dc="http://purl.org/dc/elements/1.1/"
   xmlns:cc="http://creativecommons.org/ns#"
   xmlns:rdf="http://www.w3.org/1999/02/22-rdf-syntax-ns#"
   xmlns:svg="http://www.w3.org/2000/svg"
   xmlns="http://www.w3.org/2000/svg"
   xml:space="preserve"
   width="56.693px"
   viewBox="-1163 1657.697 56.693 56.693"
   version="1.1"
   id="Layer_1"
   height="56.693px"
   enable-background="new -1163 1657.697 56.693 56.693"><metadata
     id="metadata9"><rdf:RDF><cc:Work
         rdf:about=""><dc:format>image/svg+xml</dc:format><dc:type
           rdf:resource="http://purl.org/dc/dcmitype/StillImage" /><dc:title></dc:title></cc:Work></rdf:RDF></metadata><defs
     id="defs7" /><path
     style="stroke-width:1.14633429"
     id="path2"
     d="m -1134.6529,1657.8715 c -15.5897,0 -28.2285,12.6365 -28.2285,28.2263 0,15.5897 12.6388,28.2285 28.2285,28.2285 15.5884,0 28.2272,-12.6388 28.2272,-28.2285 0,-15.5898 -12.6387,-28.2263 -28.2272,-28.2263 z m -4.0303,19.9051 12.1379,7.1591 -1.529,2.5921 -12.1387,-7.1594 z m -3.247,6.9435 13.6085,3.6583 -0.7811,2.9065 -13.6092,-3.6583 z m -1.3494,6.2929 14.032,1.293 -0.2761,2.9964 -14.0323,-1.2921 z m 13.6915,5.152 v 3.0099 l -14.0926,0.01 v -3.0096 z m 4.8019,7.0721 c 0,0 0,0.703 -0.024,0.703 v 0.012 h -22.5477 c 0,0 -0.7027,0 -0.7027,-0.012 h -0.024 v -14.6657 h 2.4073 v 12.3043 h 18.4836 v -12.3043 h 2.4072 v 13.9627 z m -1.2692,-18.7144 -7.9402,-11.6424 2.4868,-1.6957 7.9397,11.6432 z m 3.0254,-1.8779 -2.4102,-13.884 2.9655,-0.5147 2.4107,13.8841 z" /></svg>